<svg xmlns="http://www.w3.org/2000/svg" xmlns:xlink="http://www.w3.org/1999/xlink" viewBox="0 0 500 500" width="500" height="350" style="width: 100%; height: 10%; transform: translate3d(0px, 0px, 0px); content-visibility: visible;" preserveAspectRatio="xMidYMid meet"><defs><clipPath id="__lottie_element_7"><rect width="500" height="500" x="0" y="0"></rect></clipPath></defs><g clip-path="url(#__lottie_element_7)"><g style="display: block;" transform="matrix(5,0,0,5,7.5879974365234375,7.947998046875)" opacity="1"><g opacity="1" transform="matrix(1,0,0,1,24.450000762939453,70.41200256347656)"><path stroke-linecap="round" stroke-linejoin="round" fill-opacity="0" stroke="royalblue" stroke-opacity="1" stroke-width="1" d=" M-21.951000213623047,1.5269999504089355 C-21.951000213623047,-7.758999824523926 -21.951000213623047,-17.606000900268555 -21.951000213623047,-17.606000900268555 C-21.951000213623047,-21.065000534057617 -19.149999618530273,-23.86400032043457 -15.730999946594238,-23.86400032043457 C-15.730999946594238,-23.86400032043457 15.657999992370605,-23.86400032043457 15.657999992370605,-23.86400032043457 C19.14900016784668,-23.86400032043457 21.951000213623047,-21.065000534057617 21.951000213623047,-17.606000900268555 C21.951000213623047,-17.606000900268555 21.951000213623047,17.645999908447266 21.951000213623047,17.645999908447266 C21.951000213623047,17.645999908447266 21.951000213623047,17.645999908447266 21.951000213623047,17.645999908447266 C21.951000213623047,21.062999725341797 19.14900016784668,23.86400032043457 15.657999992370605,23.86400032043457 C15.657999992370605,23.86400032043457 -15.730999946594238,23.86400032043457 -15.730999946594238,23.86400032043457 C-19.149999618530273,23.86400032043457 -21.951000213623047,21.062999725341797 -21.951000213623047,17.645999908447266 C-21.951000213623047,17.645999908447266 -21.951000213623047,9.8100004196167 -21.951000213623047,1.5269999504089355"></path></g><g opacity="1" transform="matrix(1,0,0,1,0,0)"><path stroke-linecap="round" stroke-linejoin="round" fill-opacity="0" stroke="royalblue" stroke-opacity="1" stroke-width="1" d=" M19.572999954223633,62.75899887084961 C31.905000686645508,62.75899887084961 46.4010009765625,62.75899887084961 46.4010009765625,62.75899887084961 M2.5,62.75899887084961 C2.5,62.75899887084961 10.444000244140625,62.75899887084961 19.572999954223633,62.75899887084961"></path></g><g opacity="1" transform="matrix(1,0,0,1,0,0)"><path stroke-linecap="round" stroke-linejoin="round" fill-opacity="0" stroke="royalblue" stroke-opacity="1" stroke-width="1" d=" M19.572999954223633,78.16600036621094 C31.905000686645508,78.16600036621094 46.4010009765625,78.16600036621094 46.4010009765625,78.16600036621094 M2.5,78.16600036621094 C2.5,78.16600036621094 10.444000244140625,78.16600036621094 19.572999954223633,78.16600036621094"></path></g><g opacity="0.9999999999999999" transform="matrix(1,0,0,1,37.06399917602539,55.053001403808594)"><path stroke-linecap="round" stroke-linejoin="round" fill-opacity="0" stroke="royalblue" stroke-opacity="1" stroke-width="1" d=" M0.5569999814033508,-0.026000000536441803 C0.5569999814033508,0.3070000112056732 0.3109999895095825,0.5270000100135803 0.04600000008940697,0.5270000100135803 C-0.2849999964237213,0.5270000100135803 -0.5569999814033508,0.3070000112056732 -0.5569999814033508,-0.026000000536441803 C-0.5569999814033508,-0.35899999737739563 -0.2849999964237213,-0.5270000100135803 0.04600000008940697,-0.5270000100135803 C0.3109999895095825,-0.5270000100135803 0.5569999814033508,-0.35899999737739563 0.5569999814033508,-0.026000000536441803z"></path></g><g opacity="1" transform="matrix(1,0,0,1,37.06399917602539,70.46399688720703)"><path stroke-linecap="round" stroke-linejoin="round" fill-opacity="0" stroke="royalblue" stroke-opacity="1" stroke-width="1" d=" M0.5569999814033508,-0.052000001072883606 C0.5569999814033508,0.2809999883174896 0.3109999895095825,0.5529999732971191 0.04600000008940697,0.5529999732971191 C-0.2849999964237213,0.5529999732971191 -0.5569999814033508,0.2809999883174896 -0.5569999814033508,-0.052000001072883606 C-0.5569999814033508,-0.30000001192092896 -0.2849999964237213,-0.5529999732971191 0.04600000008940697,-0.5529999732971191 C0.3109999895095825,-0.5529999732971191 0.5569999814033508,-0.30000001192092896 0.5569999814033508,-0.052000001072883606z"></path></g><g opacity="0.9999992487507555" transform="matrix(1,0,0,1,37.06399917602539,85.8489990234375)"><path stroke-linecap="round" stroke-linejoin="round" fill-opacity="0" stroke="royalblue" stroke-opacity="1" stroke-width="1" d=" M0.5569999814033508,-0.05700000002980232 C0.5569999814033508,0.2809999883174896 0.3109999895095825,0.5590000152587891 0.04600000008940697,0.5590000152587891 C-0.2849999964237213,0.5590000152587891 -0.5569999814033508,0.2809999883174896 -0.5569999814033508,-0.05700000002980232 C-0.5569999814033508,-0.28299999237060547 -0.2849999964237213,-0.5590000152587891 0.04600000008940697,-0.5590000152587891 C0.3109999895095825,-0.5590000152587891 0.5569999814033508,-0.28299999237060547 0.5569999814033508,-0.05700000002980232z"></path></g><g opacity="1" transform="matrix(1,0,0,1,72.50599670410156,26.312999725341797)"><path stroke-linecap="round" stroke-linejoin="round" fill-opacity="0" stroke="royalblue" stroke-opacity="1" stroke-width="1" d=" M-21.951000213623047,1.5579999685287476 C-21.951000213623047,-7.72599983215332 -21.951000213623047,-17.591999053955078 -21.951000213623047,-17.591999053955078 C-21.951000213623047,-21.01099967956543 -19.150999069213867,-23.812999725341797 -15.729000091552734,-23.812999725341797 C-15.729000091552734,-23.812999725341797 15.732000350952148,-23.812999725341797 15.732000350952148,-23.812999725341797 C19.14900016784668,-23.812999725341797 21.951000213623047,-21.01099967956543 21.951000213623047,-17.591999053955078 C21.951000213623047,-17.591999053955078 21.951000213623047,17.59600067138672 21.951000213623047,17.59600067138672 C21.951000213623047,17.59600067138672 21.951000213623047,17.59600067138672 21.951000213623047,17.59600067138672 C21.951000213623047,21.0310001373291 19.14900016784668,23.812999725341797 15.732000350952148,23.812999725341797 C15.732000350952148,23.812999725341797 -15.729000091552734,23.812999725341797 -15.729000091552734,23.812999725341797 C-19.150999069213867,23.812999725341797 -21.951000213623047,21.0310001373291 -21.951000213623047,17.59600067138672 C-21.951000213623047,17.59600067138672 -21.951000213623047,9.807000160217285 -21.951000213623047,1.5579999685287476"></path></g><g opacity="1" transform="matrix(1,0,0,1,0,0)"><path stroke-linecap="round" stroke-linejoin="round" fill-opacity="0" stroke="royalblue" stroke-opacity="1" stroke-width="1" d=" M67.62799835205078,18.60700035095215 C79.95999908447266,18.60700035095215 94.45600128173828,18.60700035095215 94.45600128173828,18.60700035095215 M50.55500030517578,18.60700035095215 C50.55500030517578,18.60700035095215 58.499000549316406,18.60700035095215 67.62799835205078,18.60700035095215"></path></g><g opacity="1" transform="matrix(1,0,0,1,0,0)"><path stroke-linecap="round" stroke-linejoin="round" fill-opacity="0" stroke="royalblue" stroke-opacity="1" stroke-width="1" d=" M67.62799835205078,34.018001556396484 C79.95999908447266,34.018001556396484 94.45600128173828,34.018001556396484 94.45600128173828,34.018001556396484 M50.55500030517578,34.018001556396484 C50.55500030517578,34.018001556396484 58.499000549316406,34.018001556396484 67.62799835205078,34.018001556396484"></path></g><g opacity="0.9999999999999999" transform="matrix(1,0,0,1,85.19599914550781,10.930000305175781)"><path stroke-linecap="round" stroke-linejoin="round" fill-opacity="0" stroke="royalblue" stroke-opacity="1" stroke-width="1" d=" M0.531000018119812,-0.05400000140070915 C0.531000018119812,0.27900001406669617 0.3089999854564667,0.5559999942779541 -0.028999999165534973,0.5559999942779541 C-0.3580000102519989,0.5559999942779541 -0.531000018119812,0.27900001406669617 -0.531000018119812,-0.05400000140070915 C-0.531000018119812,-0.2840000092983246 -0.3580000102519989,-0.5559999942779541 -0.028999999165534973,-0.5559999942779541 C0.3089999854564667,-0.5559999942779541 0.531000018119812,-0.2840000092983246 0.531000018119812,-0.05400000140070915z"></path></g><g opacity="1" transform="matrix(1,0,0,1,85.19599914550781,26.31599998474121)"><path stroke-linecap="round" stroke-linejoin="round" fill-opacity="0" stroke="royalblue" stroke-opacity="1" stroke-width="1" d=" M0.531000018119812,0.04899999871850014 C0.531000018119812,0.2809999883174896 0.3089999854564667,0.5540000200271606 -0.028999999165534973,0.5540000200271606 C-0.3580000102519989,0.5540000200271606 -0.531000018119812,0.2809999883174896 -0.531000018119812,0.04899999871850014 C-0.531000018119812,-0.28600001335144043 -0.3580000102519989,-0.5540000200271606 -0.028999999165534973,-0.5540000200271606 C0.3089999854564667,-0.5540000200271606 0.531000018119812,-0.28600001335144043 0.531000018119812,0.04899999871850014z"></path></g><g opacity="1" transform="matrix(1,0,0,1,85.19599914550781,41.698001861572266)"><path stroke-linecap="round" stroke-linejoin="round" fill-opacity="0" stroke="royalblue" stroke-opacity="1" stroke-width="1" d=" M0.531000018119812,0.04699999839067459 C0.531000018119812,0.2809999883174896 0.3089999854564667,0.5580000281333923 -0.028999999165534973,0.5580000281333923 C-0.3580000102519989,0.5580000281333923 -0.531000018119812,0.2809999883174896 -0.531000018119812,0.04699999839067459 C-0.531000018119812,-0.28200000524520874 -0.3580000102519989,-0.5580000281333923 -0.028999999165534973,-0.5580000281333923 C0.3089999854564667,-0.5580000281333923 0.531000018119812,-0.28200000524520874 0.531000018119812,0.04699999839067459z"></path></g><g opacity="1" transform="matrix(1,0,0,1,29.850000381469727,19.191999435424805)"><path stroke-linecap="round" stroke-linejoin="round" fill-opacity="0" stroke="royalblue" stroke-opacity="1" stroke-width="1" d=" M-1.9420000314712524,1.9420000314712524 C2.9679999351501465,-2.9679999351501465 8.73900032043457,-8.73900032043457 8.73900032043457,-8.73900032043457 M-8.73900032043457,8.73900032043457 C-8.73900032043457,8.73900032043457 -5.576000213623047,5.576000213623047 -1.9420000314712524,1.9420000314712524"></path></g><g opacity="1" transform="matrix(1,0,0,1,13.48900032043457,35.5890007019043)"><path stroke-linecap="round" stroke-linejoin="round" fill-opacity="0" stroke="royalblue" stroke-opacity="1" stroke-width="1" d=" M-0.2370000034570694,0.2290000021457672 C0.3619999885559082,-0.3499999940395355 1.065999984741211,-1.031999945640564 1.065999984741211,-1.031999945640564 M-1.065999984741211,1.031999945640564 C-1.065999984741211,1.031999945640564 -0.6800000071525574,0.6589999794960022 -0.2370000034570694,0.2290000021457672"></path></g><g opacity="1" transform="matrix(1,0,0,1,34.69300079345703,14.383000373840332)"><path stroke-linecap="round" stroke-linejoin="round" fill-opacity="0" stroke="royalblue" stroke-opacity="1" stroke-width="1" d=" M2.615000009536743,-4.690000057220459 C3.802000045776367,-4.690999984741211 4.6519999504089355,-4.690999984741211 4.6519999504089355,-4.690999984741211 C4.6519999504089355,-4.690999984741211 4.6519999504089355,4.690999984741211 4.6519999504089355,4.690999984741211 M-4.6519999504089355,-4.686999797821045 C-4.6519999504089355,-4.686999797821045 -0.12300000339746475,-4.689000129699707 2.615000009536743,-4.690000057220459"></path></g><g opacity="1" transform="matrix(1,0,0,1,67.0459976196289,77.58300018310547)"><path stroke-linecap="round" stroke-linejoin="round" fill-opacity="0" stroke="royalblue" stroke-opacity="1" stroke-width="1" d=" M1.9329999685287476,-1.9420000314712524 C-2.9539999961853027,2.9679999351501465 -8.696999549865723,8.739999771118164 -8.696999549865723,8.739999771118164 M8.696999549865723,-8.739999771118164 C8.696999549865723,-8.739999771118164 5.550000190734863,-5.577000141143799 1.9329999685287476,-1.9420000314712524"></path></g><g opacity="1" transform="matrix(1,0,0,1,83.46600341796875,61.145999908447266)"><path stroke-linecap="round" stroke-linejoin="round" fill-opacity="0" stroke="royalblue" stroke-opacity="1" stroke-width="1" d=" M0.2370000034570694,-0.23199999332427979 C-0.3630000054836273,0.3540000021457672 -1.0679999589920044,1.0420000553131104 -1.0679999589920044,1.0420000553131104 M1.0679999589920044,-1.0420000553131104 C1.0679999589920044,-1.0420000553131104 0.6819999814033508,-0.6650000214576721 0.2370000034570694,-0.23199999332427979"></path></g><g opacity="1" transform="matrix(1,0,0,1,62.21099853515625,82.38099670410156)"><path stroke-linecap="round" stroke-linejoin="round" fill-opacity="0" stroke="royalblue" stroke-opacity="1" stroke-width="1" d=" M-2.61299991607666,4.702000141143799 C-3.8299999237060547,4.703000068664551 -4.704999923706055,4.703000068664551 -4.704999923706055,4.703000068664551 C-4.704999923706055,4.703000068664551 -4.704999923706055,-4.703000068664551 -4.704999923706055,-4.703000068664551 M4.704999923706055,4.698999881744385 C4.704999923706055,4.698999881744385 0.1599999964237213,4.701000213623047 -2.61299991607666,4.702000141143799"></path></g></g></g></svg>